<svg width="450" height="474" viewBox="0 0 450 474" fill="none" xmlns="http://www.w3.org/2000/svg">
<rect width="450" height="473" transform="translate(0 0.168457)" fill="#9D9D9D"/>
<path d="M92.0442 232.668L96.6762 219.948H101.284L96.6522 232.668H92.0442ZM116.763 232.668H112.155L114.747 225.516L108.219 232.668H106.563L105.243 225.516L102.651 232.668H98.0431L102.675 219.948H108.483L109.707 226.332L115.587 219.948H121.395L116.763 232.668ZM135.122 232.668H130.85L130.346 229.956C130.314 230.052 130.194 230.236 129.986 230.508C129.794 230.78 129.57 231.068 129.314 231.372C129.074 231.676 128.834 231.956 128.594 232.212C128.354 232.468 128.178 232.62 128.066 232.668H117.914C117.946 232.54 117.962 232.484 117.962 232.5V232.428L126.602 221.388C126.65 221.292 126.746 221.164 126.89 221.004C127.034 220.844 127.186 220.692 127.346 220.548C127.522 220.388 127.69 220.252 127.85 220.14C128.026 220.012 128.17 219.948 128.282 219.948H132.314C132.474 219.948 132.618 220.036 132.746 220.212C132.89 220.388 133.01 220.604 133.106 220.86C133.202 221.116 133.282 221.388 133.346 221.676C133.426 221.948 133.49 222.18 133.538 222.372L135.122 232.668ZM125.474 229.212V229.452H130.346L129.506 223.812L125.474 229.212ZM150.634 224.748L147.634 232.668H144.058C143.066 232.668 142.098 232.58 141.154 232.404C140.21 232.228 139.362 231.924 138.61 231.492C137.858 231.044 137.25 230.444 136.786 229.692C136.338 228.94 136.114 227.988 136.114 226.836C136.114 226.068 136.282 225.276 136.618 224.46C136.954 223.644 137.41 222.9 137.986 222.228C138.562 221.556 139.226 221.012 139.978 220.596C140.73 220.164 141.53 219.948 142.378 219.948H152.29C151.826 220.556 151.354 221.132 150.874 221.676C150.41 222.204 149.898 222.708 149.338 223.188H143.098C142.842 223.188 142.594 223.26 142.354 223.404C142.114 223.532 141.89 223.708 141.682 223.932C141.49 224.156 141.314 224.412 141.154 224.7C140.994 224.972 140.866 225.244 140.77 225.516C140.642 225.932 140.578 226.26 140.578 226.5C140.578 226.804 140.65 227.132 140.794 227.484C140.954 227.82 141.154 228.132 141.394 228.42C141.65 228.708 141.922 228.948 142.21 229.14C142.514 229.332 142.81 229.428 143.098 229.428H144.514L145.066 227.868H142.354V227.844C142.37 227.796 142.466 227.644 142.642 227.388C142.834 227.116 143.058 226.82 143.314 226.5C143.57 226.164 143.834 225.836 144.106 225.516C144.394 225.18 144.65 224.924 144.874 224.748H150.634ZM153.722 219.948H167.402C167.29 220.172 167.098 220.468 166.826 220.836C166.57 221.188 166.29 221.54 165.986 221.892C165.698 222.244 165.41 222.548 165.122 222.804C164.85 223.06 164.65 223.188 164.522 223.188H157.13L155.762 226.956L158.042 224.748H163.586L160.154 227.988H155.378L154.85 229.428H164.042C164.026 229.46 163.986 229.532 163.922 229.644C163.858 229.74 163.794 229.844 163.73 229.956C163.666 230.068 163.602 230.172 163.538 230.268C163.474 230.364 163.434 230.42 163.418 230.436C163.274 230.628 163.074 230.852 162.818 231.108C162.578 231.364 162.338 231.612 162.098 231.852C161.858 232.076 161.642 232.268 161.45 232.428C161.274 232.588 161.178 232.668 161.162 232.668H149.09L153.722 219.948ZM170.673 232.668V232.644C170.689 232.58 170.801 232.404 171.009 232.116C171.233 231.828 171.489 231.508 171.777 231.156C172.081 230.804 172.385 230.468 172.689 230.148C173.009 229.812 173.281 229.572 173.505 229.428H176.385L178.665 223.188H174.129V223.164C174.145 223.1 174.257 222.924 174.465 222.636C174.689 222.348 174.945 222.028 175.233 221.676C175.537 221.324 175.841 220.988 176.145 220.668C176.465 220.332 176.737 220.092 176.961 219.948H188.985C188.873 220.172 188.681 220.468 188.409 220.836C188.153 221.188 187.873 221.54 187.569 221.892C187.281 222.244 186.993 222.548 186.705 222.804C186.433 223.06 186.233 223.188 186.105 223.188H183.273L180.993 229.428H185.529C185.417 229.652 185.225 229.948 184.953 230.316C184.697 230.668 184.417 231.02 184.113 231.372C183.825 231.724 183.537 232.028 183.249 232.284C182.977 232.54 182.777 232.668 182.649 232.668H170.673ZM185.582 232.668L190.214 219.948H194.798L191.342 229.428H198.95C198.966 229.428 198.87 229.564 198.662 229.836C198.47 230.108 198.222 230.428 197.918 230.796C197.614 231.148 197.294 231.508 196.958 231.876C196.622 232.228 196.342 232.492 196.118 232.668H185.582ZM199.012 232.668L203.644 219.948H208.228L204.772 229.428H212.38C212.396 229.428 212.3 229.564 212.092 229.836C211.9 230.108 211.652 230.428 211.348 230.796C211.044 231.148 210.724 231.508 210.388 231.876C210.052 232.228 209.772 232.492 209.548 232.668H199.012ZM215.178 225.276L217.074 219.948H221.61C221.05 221.58 220.618 222.852 220.314 223.764C220.01 224.66 219.786 225.332 219.642 225.78C219.498 226.228 219.41 226.516 219.378 226.644C219.346 226.756 219.33 226.836 219.33 226.884C219.25 227.204 219.21 227.46 219.21 227.652C219.21 228.212 219.362 228.652 219.666 228.972C219.986 229.276 220.33 229.428 220.698 229.428H221.874C222.258 229.428 222.61 229.348 222.93 229.188C223.266 229.028 223.562 228.828 223.818 228.588C224.074 228.348 224.298 228.092 224.49 227.82C224.682 227.548 224.834 227.3 224.946 227.076L227.538 219.948H232.098L229.938 225.876C229.538 226.98 229.13 227.956 228.714 228.804C228.298 229.636 227.826 230.34 227.298 230.916C226.77 231.492 226.162 231.932 225.474 232.236C224.786 232.524 223.962 232.668 223.002 232.668H220.194C219.058 232.668 218.114 232.604 217.362 232.476C216.61 232.332 216.01 232.116 215.562 231.828C215.114 231.54 214.794 231.172 214.602 230.724C214.41 230.26 214.314 229.708 214.314 229.068C214.314 228.892 214.322 228.716 214.338 228.54C214.354 228.364 214.378 228.164 214.41 227.94C214.49 227.524 214.602 227.116 214.746 226.716C214.89 226.3 215.034 225.82 215.178 225.276ZM240.201 228.636V228.492C240.201 228.364 240.177 228.236 240.129 228.108C240.081 227.964 239.993 227.892 239.865 227.892H235.065C234.585 227.892 234.153 227.78 233.769 227.556C233.385 227.316 233.049 227.02 232.761 226.668C232.489 226.3 232.281 225.9 232.137 225.468C231.993 225.036 231.921 224.612 231.921 224.196C231.921 223.812 232.033 223.38 232.257 222.9C232.481 222.404 232.769 221.94 233.121 221.508C233.473 221.06 233.873 220.692 234.321 220.404C234.769 220.1 235.217 219.948 235.665 219.948H247.905C247.537 220.492 247.113 221.036 246.633 221.58C246.169 222.124 245.649 222.668 245.073 223.212H237.153C236.977 223.212 236.825 223.332 236.697 223.572C236.569 223.812 236.505 224.004 236.505 224.148V224.268C236.505 224.284 236.537 224.324 236.601 224.388C236.665 224.436 236.713 224.476 236.745 224.508C236.809 224.572 236.897 224.636 237.009 224.7C237.137 224.748 237.209 224.772 237.225 224.772H241.785C242.313 224.772 242.761 224.9 243.129 225.156C243.497 225.396 243.793 225.708 244.017 226.092C244.257 226.46 244.425 226.86 244.521 227.292C244.633 227.724 244.689 228.124 244.689 228.492V228.636C244.689 229.052 244.593 229.5 244.401 229.98C244.209 230.444 243.953 230.876 243.633 231.276C243.329 231.676 242.969 232.012 242.553 232.284C242.153 232.54 241.737 232.668 241.305 232.668H229.065C229.145 232.508 229.305 232.252 229.545 231.9C229.801 231.548 230.065 231.196 230.337 230.844C230.625 230.476 230.889 230.156 231.129 229.884C231.369 229.596 231.513 229.452 231.561 229.452H239.721C239.961 229.452 240.097 229.38 240.129 229.236C240.177 229.092 240.201 228.94 240.201 228.78V228.636ZM248.451 232.668L251.907 223.188H247.371V223.164C247.387 223.1 247.499 222.924 247.707 222.636C247.931 222.348 248.187 222.028 248.475 221.676C248.779 221.324 249.083 220.988 249.387 220.668C249.707 220.332 249.979 220.092 250.203 219.948H262.227C262.115 220.172 261.923 220.468 261.651 220.836C261.395 221.188 261.115 221.54 260.811 221.892C260.523 222.244 260.235 222.548 259.947 222.804C259.675 223.06 259.475 223.188 259.347 223.188H256.515L253.059 232.668H248.451ZM258.824 232.668L263.456 219.948H274.16C274.736 219.948 275.2 220.068 275.552 220.308C275.904 220.548 276.168 220.852 276.344 221.22C276.536 221.588 276.656 221.988 276.704 222.42C276.768 222.852 276.8 223.252 276.8 223.62C276.8 224.436 276.6 225.108 276.2 225.636C275.8 226.164 275.296 226.588 274.688 226.908C274.096 227.212 273.432 227.436 272.696 227.58C271.976 227.708 271.296 227.796 270.656 227.844L275.36 232.668H270.224L265.28 228.108L265.016 228.3L263.432 232.668H258.824ZM272.144 223.884V223.62C272.144 223.492 272.12 223.388 272.072 223.308C272.024 223.212 271.904 223.164 271.712 223.164H266.888L265.52 226.908L267.632 224.772H271.472C271.712 224.772 271.88 224.668 271.976 224.46C272.088 224.236 272.144 224.044 272.144 223.884ZM292.622 232.668H288.35L287.846 229.956C287.814 230.052 287.694 230.236 287.486 230.508C287.294 230.78 287.07 231.068 286.814 231.372C286.574 231.676 286.334 231.956 286.094 232.212C285.854 232.468 285.678 232.62 285.566 232.668H275.414C275.446 232.54 275.462 232.484 275.462 232.5V232.428L284.102 221.388C284.15 221.292 284.246 221.164 284.39 221.004C284.534 220.844 284.686 220.692 284.846 220.548C285.022 220.388 285.19 220.252 285.35 220.14C285.526 220.012 285.67 219.948 285.782 219.948H289.814C289.974 219.948 290.118 220.036 290.246 220.212C290.39 220.388 290.51 220.604 290.606 220.86C290.702 221.116 290.782 221.388 290.846 221.676C290.926 221.948 290.99 222.18 291.038 222.372L292.622 232.668ZM282.974 229.212V229.452H287.846L287.006 223.812L282.974 229.212ZM293.723 232.668L298.355 219.948H304.163L305.531 227.1L308.147 219.948H312.707L308.075 232.668H302.267L300.923 225.516L298.331 232.668H293.723ZM313.842 232.668L317.298 223.188H312.762V223.164C312.778 223.1 312.89 222.924 313.098 222.636C313.322 222.348 313.578 222.028 313.866 221.676C314.17 221.324 314.474 220.988 314.778 220.668C315.098 220.332 315.37 220.092 315.594 219.948H327.618C327.506 220.172 327.314 220.468 327.042 220.836C326.786 221.188 326.506 221.54 326.202 221.892C325.914 222.244 325.626 222.548 325.338 222.804C325.066 223.06 324.866 223.188 324.738 223.188H321.906L318.45 232.668H313.842ZM330.918 232.668L335.55 219.948H340.134L336.678 229.428H344.286C344.302 229.428 344.206 229.564 343.998 229.836C343.806 230.108 343.558 230.428 343.254 230.796C342.95 231.148 342.63 231.508 342.294 231.876C341.958 232.228 341.678 232.492 341.454 232.668H330.918ZM348.98 219.948H362.66C362.548 220.172 362.356 220.468 362.084 220.836C361.828 221.188 361.548 221.54 361.244 221.892C360.956 222.244 360.668 222.548 360.38 222.804C360.108 223.06 359.908 223.188 359.78 223.188H352.388L351.02 226.956L353.3 224.748H358.844L355.412 227.988H350.636L350.108 229.428H359.3C359.284 229.46 359.244 229.532 359.18 229.644C359.116 229.74 359.052 229.844 358.988 229.956C358.924 230.068 358.86 230.172 358.796 230.268C358.732 230.364 358.692 230.42 358.676 230.436C358.532 230.628 358.332 230.852 358.076 231.108C357.836 231.364 357.596 231.612 357.356 231.852C357.116 232.076 356.9 232.268 356.708 232.428C356.532 232.588 356.436 232.668 356.42 232.668H344.348L348.98 219.948ZM147.836 253.668L152.468 240.948H163.484C163.964 240.948 164.356 241.076 164.66 241.332C164.98 241.572 165.228 241.876 165.404 242.244C165.596 242.596 165.724 242.98 165.788 243.396C165.868 243.796 165.908 244.156 165.908 244.476C165.908 245.148 165.748 245.764 165.428 246.324C165.108 246.884 164.7 247.372 164.204 247.788C163.708 248.188 163.164 248.5 162.572 248.724C161.98 248.948 161.412 249.06 160.868 249.06H154.124L152.444 253.668H147.836ZM155.876 244.212L154.556 247.86L156.86 245.82H160.7C160.716 245.82 160.748 245.788 160.796 245.724C160.86 245.644 160.924 245.556 160.988 245.46C161.052 245.364 161.108 245.276 161.156 245.196C161.22 245.1 161.26 245.028 161.276 244.98L161.324 244.86C161.308 244.844 161.292 244.82 161.276 244.788C161.276 244.756 161.276 244.74 161.276 244.74C161.228 244.66 161.14 244.556 161.012 244.428C160.9 244.284 160.828 244.212 160.796 244.212H155.876ZM164.031 253.668L168.663 240.948H179.367C179.943 240.948 180.407 241.068 180.759 241.308C181.111 241.548 181.375 241.852 181.551 242.22C181.743 242.588 181.863 242.988 181.911 243.42C181.975 243.852 182.007 244.252 182.007 244.62C182.007 245.436 181.807 246.108 181.407 246.636C181.007 247.164 180.503 247.588 179.895 247.908C179.303 248.212 178.639 248.436 177.903 248.58C177.183 248.708 176.503 248.796 175.863 248.844L180.567 253.668H175.431L170.487 249.108L170.223 249.3L168.639 253.668H164.031ZM177.351 244.884V244.62C177.351 244.492 177.327 244.388 177.279 244.308C177.231 244.212 177.111 244.164 176.919 244.164H172.095L170.727 247.908L172.839 245.772H176.679C176.919 245.772 177.087 245.668 177.183 245.46C177.295 245.236 177.351 245.044 177.351 244.884ZM199.278 246.78C199.134 247.676 198.822 248.54 198.342 249.372C197.862 250.204 197.27 250.94 196.566 251.58C195.862 252.204 195.062 252.708 194.166 253.092C193.286 253.476 192.366 253.668 191.406 253.668H188.598C187.718 253.668 186.902 253.596 186.15 253.452C185.398 253.308 184.75 253.068 184.206 252.732C183.662 252.38 183.23 251.908 182.91 251.316C182.606 250.724 182.454 249.98 182.454 249.084C182.454 248.892 182.462 248.692 182.478 248.484C182.494 248.276 182.518 248.06 182.55 247.836C182.662 246.972 182.95 246.132 183.414 245.316C183.878 244.484 184.454 243.748 185.142 243.108C185.83 242.452 186.59 241.932 187.422 241.548C188.254 241.148 189.094 240.948 189.942 240.948H193.518C194.43 240.948 195.246 241.036 195.966 241.212C196.686 241.372 197.302 241.628 197.814 241.98C198.326 242.332 198.718 242.796 198.99 243.372C199.262 243.932 199.398 244.604 199.398 245.388C199.398 245.612 199.39 245.836 199.374 246.06C199.358 246.284 199.326 246.524 199.278 246.78ZM187.062 247.5C187.046 247.516 187.038 247.572 187.038 247.668V247.812C187.038 248.1 187.094 248.404 187.206 248.724C187.318 249.028 187.47 249.308 187.662 249.564C187.854 249.82 188.078 250.028 188.334 250.188C188.59 250.348 188.862 250.428 189.15 250.428H191.142C191.286 250.428 191.502 250.364 191.79 250.236C192.078 250.092 192.382 249.908 192.702 249.684C193.038 249.46 193.35 249.212 193.638 248.94C193.942 248.652 194.166 248.372 194.31 248.1C194.454 247.876 194.542 247.7 194.574 247.572L194.67 247.332C194.702 247.172 194.718 247.1 194.718 247.116C194.734 246.988 194.742 246.86 194.742 246.732C194.758 246.588 194.766 246.444 194.766 246.3C194.766 246.044 194.742 245.788 194.694 245.532C194.646 245.276 194.55 245.052 194.406 244.86C194.262 244.652 194.062 244.492 193.806 244.38C193.566 244.252 193.246 244.188 192.846 244.188H190.494C190.238 244.188 189.958 244.26 189.654 244.404C189.366 244.532 189.078 244.708 188.79 244.932C188.502 245.156 188.23 245.412 187.974 245.7C187.734 245.972 187.542 246.244 187.398 246.516C187.318 246.708 187.246 246.892 187.182 247.068C187.118 247.228 187.078 247.372 187.062 247.5ZM215.029 245.748L212.029 253.668H208.453C207.461 253.668 206.493 253.58 205.549 253.404C204.605 253.228 203.757 252.924 203.005 252.492C202.253 252.044 201.645 251.444 201.181 250.692C200.733 249.94 200.509 248.988 200.509 247.836C200.509 247.068 200.677 246.276 201.013 245.46C201.349 244.644 201.805 243.9 202.381 243.228C202.957 242.556 203.621 242.012 204.373 241.596C205.125 241.164 205.925 240.948 206.773 240.948H216.685C216.221 241.556 215.749 242.132 215.269 242.676C214.805 243.204 214.293 243.708 213.733 244.188H207.493C207.237 244.188 206.989 244.26 206.749 244.404C206.509 244.532 206.285 244.708 206.077 244.932C205.885 245.156 205.709 245.412 205.549 245.7C205.389 245.972 205.261 246.244 205.165 246.516C205.037 246.932 204.973 247.26 204.973 247.5C204.973 247.804 205.045 248.132 205.189 248.484C205.349 248.82 205.549 249.132 205.789 249.42C206.045 249.708 206.317 249.948 206.605 250.14C206.909 250.332 207.205 250.428 207.493 250.428H208.909L209.461 248.868H206.749V248.844C206.765 248.796 206.861 248.644 207.037 248.388C207.229 248.116 207.453 247.82 207.709 247.5C207.965 247.164 208.229 246.836 208.501 246.516C208.789 246.18 209.045 245.924 209.269 245.748H215.029ZM213.485 253.668L218.117 240.948H228.821C229.397 240.948 229.861 241.068 230.213 241.308C230.565 241.548 230.829 241.852 231.005 242.22C231.197 242.588 231.317 242.988 231.365 243.42C231.429 243.852 231.461 244.252 231.461 244.62C231.461 245.436 231.261 246.108 230.861 246.636C230.461 247.164 229.957 247.588 229.349 247.908C228.757 248.212 228.093 248.436 227.357 248.58C226.637 248.708 225.957 248.796 225.317 248.844L230.021 253.668H224.885L219.941 249.108L219.677 249.3L218.093 253.668H213.485ZM226.805 244.884V244.62C226.805 244.492 226.781 244.388 226.733 244.308C226.685 244.212 226.565 244.164 226.372 244.164H221.549L220.181 247.908L222.293 245.772H226.133C226.373 245.772 226.541 245.668 226.637 245.46C226.749 245.236 226.805 245.044 226.805 244.884ZM247.282 253.668H243.01L242.506 250.956C242.474 251.052 242.354 251.236 242.146 251.508C241.954 251.78 241.73 252.068 241.474 252.372C241.234 252.676 240.994 252.956 240.754 253.212C240.514 253.468 240.338 253.62 240.226 253.668H230.074C230.106 253.54 230.122 253.484 230.122 253.5V253.428L238.762 242.388C238.81 242.292 238.906 242.164 239.05 242.004C239.194 241.844 239.346 241.692 239.506 241.548C239.682 241.388 239.85 241.252 240.01 241.14C240.186 241.012 240.33 240.948 240.442 240.948H244.474C244.634 240.948 244.778 241.036 244.906 241.212C245.05 241.388 245.17 241.604 245.266 241.86C245.362 242.116 245.442 242.388 245.506 242.676C245.586 242.948 245.65 243.18 245.698 243.372L247.282 253.668ZM237.634 250.212V250.452H242.506L241.666 244.812L237.634 250.212ZM267.103 253.668H262.495L265.087 246.516L258.559 253.668H256.903L255.583 246.516L252.991 253.668H248.383L253.015 240.948H258.823L260.047 247.332L265.927 240.948H271.735L267.103 253.668ZM287.165 253.668H282.557L285.149 246.516L278.621 253.668H276.965L275.645 246.516L273.053 253.668H268.445L273.077 240.948H278.885L280.109 247.332L285.989 240.948H291.797L287.165 253.668ZM293.14 240.948H306.82C306.708 241.172 306.516 241.468 306.244 241.836C305.988 242.188 305.708 242.54 305.404 242.892C305.116 243.244 304.828 243.548 304.54 243.804C304.268 244.06 304.068 244.188 303.94 244.188H296.548L295.18 247.956L297.46 245.748H303.004L299.572 248.988H294.796L294.268 250.428H303.46C303.444 250.46 303.404 250.532 303.34 250.644C303.276 250.74 303.212 250.844 303.148 250.956C303.084 251.068 303.02 251.172 302.956 251.268C302.892 251.364 302.852 251.42 302.836 251.436C302.692 251.628 302.492 251.852 302.236 252.108C301.996 252.364 301.756 252.612 301.516 252.852C301.276 253.076 301.06 253.268 300.868 253.428C300.692 253.588 300.596 253.668 300.58 253.668H288.508L293.14 240.948Z" fill="white"/>
</svg>
