<svg width="26" height="25" viewBox="0 0 26 25" fill="none" xmlns="http://www.w3.org/2000/svg">
<path d="M14.3233 12.4993L19.4389 7.39184C19.5918 7.23894 19.6777 7.03156 19.6777 6.81532C19.6777 6.59908 19.5918 6.3917 19.4389 6.2388C19.286 6.0859 19.0787 6 18.8624 6C18.6462 6 18.4388 6.0859 18.2859 6.2388L13.1784 11.3544L8.07096 6.2388C7.91806 6.0859 7.71068 6 7.49444 6C7.2782 6 7.07082 6.0859 6.91792 6.2388C6.76502 6.3917 6.67912 6.59908 6.67912 6.81532C6.67912 7.03156 6.76502 7.23894 6.91792 7.39184L12.0335 12.4993L6.91792 17.6068C6.84181 17.6823 6.78141 17.7721 6.74018 17.871C6.69896 17.97 6.67773 18.0761 6.67773 18.1833C6.67773 18.2905 6.69896 18.3966 6.74018 18.4956C6.78141 18.5945 6.84181 18.6843 6.91792 18.7598C6.99341 18.8359 7.08322 18.8963 7.18217 18.9376C7.28111 18.9788 7.38725 19 7.49444 19C7.60163 19 7.70777 18.9788 7.80672 18.9376C7.90567 18.8963 7.99547 18.8359 8.07096 18.7598L13.1784 13.6442L18.2859 18.7598C18.3614 18.8359 18.4512 18.8963 18.5501 18.9376C18.6491 18.9788 18.7552 19 18.8624 19C18.9696 19 19.0757 18.9788 19.1747 18.9376C19.2736 18.8963 19.3634 18.8359 19.4389 18.7598C19.515 18.6843 19.5754 18.5945 19.6167 18.4956C19.6579 18.3966 19.6791 18.2905 19.6791 18.1833C19.6791 18.0761 19.6579 17.97 19.6167 17.871C19.5754 17.7721 19.515 17.6823 19.4389 17.6068L14.3233 12.4993Z" fill="#661100"/>
</svg>
